<?xml version="1.0" encoding="UTF-8"?>
<svg width="150px" height="50px" viewBox="0 0 150 50" version="1.1" xmlns="http://www.w3.org/2000/svg" xmlns:xlink="http://www.w3.org/1999/xlink">
    <!-- Generator: Sketch 47.1 (45422) - http://www.bohemiancoding.com/sketch -->
    <title>Download_on_the_App_Store_Badge_US-UK_RGB_blk_092917</title>
    <desc>Created with Sketch.</desc>
    <defs></defs>
    <g id="Page-1" stroke="none" stroke-width="1" fill="none" fill-rule="evenodd">
        <g id="Download_on_the_App_Store_Badge_US-UK_RGB_blk_092917" fill-rule="nonzero">
            <g id="Group">
                <g id="Shape">
                    <path d="M137.668463,2.71050543e-20 L11.91835,2.71050543e-20 C11.459975,2.71050543e-20 11.0071,2.71050543e-20 10.5499375,0.0025 C10.16725,0.005 9.7876125,0.0122625 9.40125,0.018375 C8.5618921,0.0282522545 7.72450809,0.102095325 6.896375,0.2392625 C6.0694051,0.379415785 5.26834065,0.643644675 4.520275,1.0230125 C3.77312426,1.40558964 3.09043127,1.90270941 2.4969625,2.4963375 C1.90037812,3.08829624 1.40307898,3.77252047 1.0241875,4.5227 C0.644250302,5.2713864 0.380800623,6.07367287 0.2429375,6.90185 C0.103763676,7.72898113 0.0288729758,8.56565068 0.0189375,9.40435 C0.0073375,9.7876 0.0061125,10.172125 0,10.555425 L0,39.44825 C0.0061125,39.836375 0.0073375,40.212375 0.0189375,40.600625 C0.0288760225,41.4392827 0.103766724,42.2759105 0.2429375,43.103 C0.380419941,43.9316613 0.643885197,44.7344083 1.0241875,45.483375 C1.40290694,46.2311286 1.90027602,46.9125828 2.4969625,47.50125 C3.08818103,48.0975176 3.77131529,48.5949755 4.520275,48.974625 C5.26833496,49.3550082 6.06931306,49.6208098 6.896375,49.763125 C7.72464887,49.8991934 8.56194676,49.9730665 9.40125,49.984125 C9.7876125,49.992625 10.16725,49.9975 10.5499375,49.9975 C11.0070875,50 11.46,50 11.91835,50 L137.668463,50 C138.117712,50 138.574212,50 139.023462,49.9975 C139.404337,49.9975 139.794962,49.992625 140.175838,49.984125 C141.013554,49.9736546 141.849276,49.8997768 142.675838,49.763125 C143.505568,49.619808 144.309417,49.3540767 145.061087,48.974625 C145.809372,48.5947557 146.491875,48.0973113 147.082587,47.50125 C147.677734,46.9102773 148.176166,46.2293216 148.559587,45.483375 C148.937036,44.7338635 149.197993,43.9311806 149.333462,43.103 C149.472856,42.275797 149.550404,41.4393553 149.565462,40.600625 C149.570337,40.212375 149.570337,39.836375 149.570337,39.44825 C149.580087,38.994125 149.580087,38.5425 149.580087,38.081 L149.580087,11.9201625 C149.580087,11.4624 149.580087,11.0083 149.570337,10.555425 C149.570337,10.172125 149.570337,9.7876 149.565462,9.4043 C149.550407,8.56552806 149.472859,7.72904459 149.333462,6.9018 C149.197616,6.074102 148.936674,5.2718791 148.559587,4.52265 C147.787993,3.0189951 146.564467,1.79503175 145.061087,1.0229 C144.309415,0.644459225 143.505479,0.380300512 142.675837,0.23915 C141.849419,0.101378479 141.01361,0.0275097061 140.175837,0.0182 C139.794962,0.0121 139.404337,0.004775 139.023462,0.0023375 C138.574212,-0.0001625 138.117712,-0.0001625 137.668462,-0.0001625 L137.668463,2.71050543e-20 Z" fill="#A6A6A6"></path>
                    <path d="M10.5560375,48.90625 C10.1751875,48.90625 9.8035375,48.901375 9.425675,48.892875 C8.64290222,48.8826759 7.86195897,48.8145313 7.08925,48.689 C6.36873788,48.5649102 5.67075531,48.3340806 5.018325,48.004125 C4.37187713,47.6769033 3.78226471,47.2478411 3.272075,46.733375 C2.75450041,46.2249691 2.32359592,45.635305 1.9964375,44.98775 C1.66567408,44.3359864 1.4367661,43.6373745 1.3176875,42.91625 C1.18909295,42.1413936 1.11951797,41.3578916 1.1095625,40.5725 C1.1016375,40.308875 1.0912625,39.431125 1.0912625,39.431125 L1.0912625,10.555425 C1.0912625,10.555425 1.1023125,9.6911625 1.109625,9.43725 C1.11915728,8.65310256 1.18832768,7.87081637 1.3165375,7.0971625 C1.4358359,6.3740626 1.66492109,5.67343608 1.9958625,5.0195375 C2.32181853,4.37242981 2.75033073,3.78232537 3.2647875,3.2721 C3.77866604,2.75702677 4.37016452,2.32575515 5.0177125,1.9940125 C5.66864333,1.665117 6.36530681,1.43591568 7.0843625,1.3140875 C7.85960917,1.18729517 8.64326355,1.11874511 9.42875,1.1090125 L10.55665,1.09375 L139.017337,1.09375 L140.158713,1.109625 C140.937054,1.118874 141.71359,1.18681251 142.481713,1.3128625 C143.208047,1.43621884 143.911971,1.66701942 144.570338,1.997675 C145.867611,2.66623256 146.923177,3.72395369 147.589088,5.0225875 C147.914747,5.67197195 148.140298,6.36688345 148.258088,7.0837375 C148.387824,7.86373923 148.460434,8.65217292 148.475337,9.44275 C148.478963,9.79675 148.478963,10.177 148.478963,10.555425 C148.488838,11.024175 148.488838,11.4703375 148.488838,11.9201625 L148.488838,38.081 C148.488838,38.535125 148.488838,38.97825 148.478963,39.425 C148.478963,39.8315 148.478963,40.203875 148.474087,40.587125 C148.459506,41.3635946 148.388107,42.1379553 148.260463,42.904 C148.143825,43.6303264 147.916163,44.3343914 147.585462,44.9915 C147.255991,45.6320264 146.827561,46.2165827 146.315962,46.723625 C145.805314,47.2408558 145.214661,47.6724284 144.566712,48.00175 C143.91017,48.3342421 143.207282,48.5659253 142.481712,48.689 C141.709062,48.8152012 140.928044,48.8833502 140.145212,48.892875 C139.779087,48.901375 139.395712,48.90625 139.023462,48.90625 L137.668462,48.90875 L10.5560375,48.90625 Z" fill="#000000"></path>
                </g>
                <g id="_Group_" transform="translate(11.250000, 10.000000)" fill="#FFFFFF">
                    <g id="_Group_2">
                        <g id="_Group_3">
                            <path d="M19.7111,15.37585 C19.7384212,13.2552614 20.8501537,11.2964826 22.6568,10.185775 C21.5118908,8.55064096 19.6629901,7.55109794 17.66785,7.488675 C15.5688,7.26835 13.5338625,8.7447125 12.464225,8.7447125 C11.3738875,8.7447125 9.7270125,7.51055 7.9536,7.5470375 C5.62025158,7.62242302 3.49767147,8.91690685 2.36245,10.956875 C-0.05505,15.1424 1.7481875,21.2937125 4.06395,24.676975 C5.222575,26.3336625 6.576675,28.184225 8.3484875,28.1186 C10.0823125,28.0466875 10.7298625,27.013 12.8227375,27.013 C14.8961875,27.013 15.503725,28.1186 17.3114875,28.076875 C19.1719625,28.046675 20.34415,26.412825 21.462125,24.74045 C22.2945952,23.5599996 22.9351796,22.2553449 23.36015,20.8748125 C21.1504707,19.9402266 19.7136791,17.7750429 19.7111,15.37585 L19.7111,15.37585 Z" id="_Path_"></path>
                            <path d="M16.2965625,5.2636125 C17.3109707,4.04585238 17.8107312,2.48062807 17.6897125,0.9003375 C16.1399223,1.06311311 14.7083503,1.80381209 13.6802375,2.97485 C12.6650234,4.13023628 12.1507183,5.64179085 12.2506,7.1765875 C13.821171,7.19275846 15.3123951,6.48769152 16.2965625,5.2636125 L16.2965625,5.2636125 Z" id="_Path_2"></path>
                        </g>
                    </g>
                    <g id="Group" transform="translate(31.250000, 11.250000)">
                        <path d="M10.3778375,12.6745625 L4.4610875,12.6745625 L3.0401875,16.870125 L0.5340875,16.870125 L6.1383375,1.347625 L8.7420875,1.347625 L14.3463375,16.870125 L11.7975,16.870125 L10.3778375,12.6745625 Z M5.073875,10.738525 L9.763875,10.738525 L7.4518625,3.9294375 L7.3871625,3.9294375 L5.073875,10.738525 Z" id="Shape"></path>
                        <path d="M26.4496125,11.2121625 C26.4496125,14.7290125 24.5672875,16.988525 21.7267125,16.988525 C20.2584441,17.0653308 18.8754155,16.2962884 18.165925,15.008525 L18.112175,15.008525 L18.112175,20.614 L15.789175,20.614 L15.789175,5.552975 L18.03775,5.552975 L18.03775,7.4353 L18.080475,7.4353 C18.8214854,6.1556099 20.2060053,5.38689855 21.6839875,5.4345625 C24.55625,5.434575 26.4496125,7.705075 26.4496125,11.2121625 Z M24.0619125,11.2121625 C24.0619125,8.9209125 22.877825,7.41455 21.0711875,7.41455 C19.2962875,7.41455 18.1024375,8.9526375 18.1024375,11.2121625 C18.1024375,13.4924375 19.2962875,15.0195375 21.0711875,15.0195375 C22.8778375,15.0195375 24.0619125,13.524175 24.0619125,11.2121625 Z" id="Shape"></path>
                        <path d="M38.9056625,11.2121625 C38.9056625,14.7290125 37.0233375,16.988525 34.1827625,16.988525 C32.7144941,17.0653308 31.3314655,16.2962884 30.621975,15.008525 L30.568225,15.008525 L30.568225,20.614 L28.245225,20.614 L28.245225,5.552975 L30.49375,5.552975 L30.49375,7.4353 L30.536475,7.4353 C31.2774908,6.15561067 32.662016,5.38690384 34.14,5.434575 C37.01235,5.434575 38.9056625,7.705075 38.9056625,11.2121625 Z M36.5179625,11.2121625 C36.5179625,8.9209125 35.333875,7.41455 33.5272375,7.41455 C31.7523375,7.41455 30.5584875,8.9526375 30.5584875,11.2121625 C30.5584875,13.4924375 31.7523375,15.0195375 33.5272375,15.0195375 C35.3338875,15.0195375 36.517975,13.524175 36.517975,11.2121625 L36.5179625,11.2121625 Z" id="Shape"></path>
                        <path d="M47.1380875,12.5451625 C47.3102125,14.084475 48.8055875,15.0951625 50.849025,15.0951625 C52.8070375,15.0951625 54.215725,14.084425 54.215725,12.696475 C54.215725,11.4916375 53.3661125,10.770225 51.3544,10.275825 L49.3426875,9.7912 C46.49235,9.102725 45.1691,7.7697125 45.1691,5.606625 C45.1691,2.9284 47.5030875,1.0888 50.8172875,1.0888 C54.0972875,1.0888 56.34585,2.9284 56.4215375,5.606625 L54.0765375,5.606625 C53.9361625,4.05755 52.6556375,3.1225 50.7843,3.1225 C48.9129625,3.1225 47.63245,4.06855 47.63245,5.4455 C47.63245,6.5429125 48.450325,7.1886625 50.45105,7.683 L52.16125,8.102925 C55.3460625,8.8561 56.6693125,10.135425 56.6693125,12.4059 C56.6693125,15.30995 54.356075,17.1288 50.676875,17.1288 C47.2344875,17.1288 44.910275,15.352675 44.760125,12.54505 L47.1380875,12.5451625 Z" id="Shape"></path>
                        <path d="M61.6827625,2.87475 L61.6827625,5.552975 L63.8348625,5.552975 L63.8348625,7.392575 L61.6827625,7.392575 L61.6827625,13.6315875 C61.6827625,14.600825 62.113675,15.0524875 63.0597125,15.0524875 C63.3152018,15.0480324 63.5702777,15.0300908 63.823875,14.9987375 L63.823875,16.82735 C63.3985354,16.9068244 62.9662135,16.9428181 62.5335875,16.934775 C60.2423375,16.934775 59.348775,16.074175 59.348775,13.87935 L59.348775,7.392575 L57.703275,7.392575 L57.703275,5.552975 L59.34875,5.552975 L59.34875,2.87475 L61.6827625,2.87475 Z" id="Shape"></path>
                        <path d="M65.08125,11.2121625 C65.08125,7.651375 67.1784125,5.413825 70.4486875,5.413825 C73.7299375,5.413825 75.8173375,7.651325 75.8173375,11.2121625 C75.8173375,14.782725 73.740925,17.0105 70.4486875,17.0105 C67.1576125,17.0105 65.08125,14.7827125 65.08125,11.2121625 Z M73.4503875,11.2121625 C73.4503875,8.7695375 72.331,7.3278875 70.448675,7.3278875 C68.56635,7.3278875 67.4481875,8.780525 67.4481875,11.2121625 C67.4481875,13.66455 68.56635,15.095225 70.448675,15.095225 C72.331,15.095225 73.4503375,13.66455 73.4503375,11.2121625 L73.4503875,11.2121625 Z" id="Shape"></path>
                        <path d="M77.732575,5.552975 L79.94815,5.552975 L79.94815,7.479225 L80.0019,7.479225 C80.3108701,6.23921051 81.4470657,5.38578945 82.7240625,5.43455 C82.9917676,5.43361529 83.258734,5.46268843 83.5199625,5.521225 L83.5199625,7.694075 C83.1820012,7.59080415 82.8294495,7.54338911 82.4762125,7.5537 C81.7932728,7.5259943 81.1323386,7.79816841 80.6669518,8.29875747 C80.201565,8.79934652 79.9782207,9.47833843 80.0555625,10.15745 L80.0555625,16.8701 L77.7325625,16.8701 L77.732575,5.552975 Z" id="Shape"></path>
                        <path d="M94.230375,13.5461375 C93.917875,15.600575 91.9171375,17.0104875 89.357325,17.0104875 C86.0650875,17.0104875 84.0216375,14.804675 84.0216375,11.2658625 C84.0216375,7.7160625 86.076075,5.4138125 89.259675,5.4138125 C92.390775,5.4138125 94.359775,7.5646875 94.359775,10.9960875 L94.359775,11.7919875 L86.3666125,11.7919875 L86.3666125,11.9323625 C86.2919843,12.774902 86.5829145,13.6088993 87.1653999,14.2222124 C87.7478853,14.8355255 88.5657844,15.1690416 89.41105,15.137925 C90.5383528,15.2435495 91.6011788,14.5962221 92.024575,13.546125 L94.230375,13.5461375 Z M86.3775875,10.16845 L92.03555,10.16845 C92.0777068,9.41137187 91.8021206,8.67102885 91.2751876,8.12578943 C90.7482545,7.58055001 90.017751,7.27985051 89.259675,7.2961375 C88.4956022,7.29157779 87.7613634,7.59241829 87.2201569,8.13179156 C86.6789504,8.67116483 86.3756203,9.40437865 86.3775875,10.1684625 L86.3775875,10.16845 Z" id="Shape"></path>
                    </g>
                </g>
            </g>
            <g id="_Group_4" transform="translate(43.750000, 10.000000)" fill="#FFFFFF">
                <g id="Group">
                    <path d="M3.5327375,0.91375 C4.5189207,0.842980227 5.48486533,1.21818429 6.16470161,1.93608977 C6.84453789,2.65399526 7.16660734,3.63893099 7.0422625,4.6198 C7.0422625,7.0026125 5.754425,8.3723 3.5327375,8.3723 L0.83865,8.3723 L0.83865,0.91375 L3.5327375,0.91375 Z M1.9970875,7.3175 L3.4033375,7.3175 C4.10811493,7.35962751 4.79435815,7.08194876 5.27152314,6.56156474 C5.74868813,6.04118072 5.96597451,5.33349302 5.86305,4.635 C5.95848627,3.93940567 5.73807073,3.23755777 5.26208884,2.72141748 C4.78610696,2.20527718 4.10436959,1.92885787 3.4033375,1.9677625 L1.9970875,1.9677625 L1.9970875,7.3175 Z" id="Shape"></path>
                    <path d="M8.35085,5.555425 C8.25433391,4.54653131 8.73810458,3.57013992 9.59926991,3.03574671 C10.4604352,2.5013535 11.5501023,2.5013535 12.4112676,3.03574671 C13.2724329,3.57013992 13.7562036,4.54653131 13.6596875,5.555425 C13.7580399,6.56540283 13.2747108,7.54368798 12.4127819,8.07923163 C11.550853,8.61477527 10.4596845,8.61477527 9.59775557,8.07923163 C8.73582668,7.54368798 8.25249757,6.56540283 8.35085,5.555425 Z M12.5171,5.555425 C12.5171,4.3353375 11.969,3.6218375 11.0071,3.6218375 C10.041525,3.6218375 9.49835,4.3353375 9.49835,5.5554375 C9.49835,6.7853 10.0415625,7.4933 11.0071,7.4933 C11.969025,7.4932875 12.5171125,6.7804 12.5171125,5.555425 L12.5171,5.555425 Z" id="Shape"></path>
                    <polygon id="Shape" points="20.716575 8.3721875 19.5642375 8.3721875 18.4009125 4.226675 18.313025 4.226675 17.154575 8.3721875 16.0132125 8.3721875 14.4617 2.743525 15.5884125 2.743525 16.5967125 7.038525 16.679725 7.038525 17.83695 2.743525 18.902625 2.743525 20.05985 7.038525 20.1477375 7.038525 21.15115 2.743525 22.2619875 2.743525"></polygon>
                    <path d="M23.566925,2.743525 L24.63625,2.743525 L24.63625,3.6376875 L24.7192625,3.6376875 C25.0079311,2.97934742 25.6824661,2.57663434 26.39895,2.634875 C26.953721,2.59316471 27.4973573,2.80598738 27.8763635,3.21325259 C28.2553696,3.6205178 28.4286163,4.1780297 28.3471875,4.728375 L28.3471875,8.372125 L27.23635,8.372125 L27.23635,5.007325 C27.23635,4.1027875 26.8432875,3.65295 26.02175,3.65295 C25.6454573,3.6354239 25.2802752,3.78310321 25.0219433,4.05727098 C24.7636113,4.33143875 24.6378938,4.70475126 24.67775,5.0793375 L24.67775,8.3721875 L23.5669125,8.3721875 L23.566925,2.743525 Z" id="Shape"></path>
                    <polygon id="Shape" points="30.1172125 0.54625 31.22805 0.54625 31.22805 8.372175 30.1172125 8.372175"></polygon>
                    <path d="M32.7722375,5.555425 C32.6757955,4.54646531 33.1596425,3.5700492 34.0208717,3.03564775 C34.882101,2.5012463 35.971824,2.5012463 36.8330533,3.03564775 C37.6942825,3.5700492 38.1781295,4.54646531 38.0816875,5.555425 C38.179915,6.56543899 37.6964973,7.54369649 36.8345257,8.07921655 C35.972554,8.61473661 34.881371,8.61473661 34.0193993,8.07921655 C33.1574277,7.54369649 32.67401,6.56543899 32.7722375,5.555425 L32.7722375,5.555425 Z M36.9384875,5.555425 C36.9384875,4.3353375 36.3903875,3.6218375 35.4284875,3.6218375 C34.4629125,3.6218375 33.9197375,4.3353375 33.9197375,5.5554375 C33.9197375,6.7853 34.46295,7.4933 35.4284875,7.4933 C36.3904,7.4932875 36.9385,6.7804 36.9385,5.555425 L36.9384875,5.555425 Z" id="Shape"></path>
                    <path d="M39.251125,6.7804 C39.251125,5.7672125 40.005525,5.1831125 41.344625,5.1001 L42.8692875,5.0122125 L42.8692875,4.526375 C42.8692875,3.9318875 42.476225,3.5962 41.71695,3.5962 C41.0968375,3.5962 40.66715,3.8238625 40.54385,4.2218125 L39.4684125,4.2218125 C39.5819375,3.2550125 40.4913625,2.6349 41.7682125,2.6349 C43.17935,2.6349 43.97525,3.3374 43.97525,4.526375 L43.97525,8.3722 L42.9059125,8.3722 L42.9059125,7.5811875 L42.818025,7.5811875 C42.4548357,8.15884542 41.8089671,8.49645404 41.12735,8.4649375 C40.6495202,8.51463977 40.1729639,8.35988833 39.8154948,8.03894056 C39.4580256,7.71799279 39.2530076,7.26080414 39.251125,6.7804 L39.251125,6.7804 Z M42.8692875,6.2994375 L42.8692875,5.8288625 L41.494775,5.91675 C40.719625,5.968625 40.3680625,6.2323 40.3680625,6.7285125 C40.3680625,7.2351 40.8075125,7.5299 41.4118125,7.5299 C41.7695451,7.56611233 42.126658,7.45559382 42.4014005,7.22364449 C42.676143,6.99169516 42.8449895,6.65817632 42.8692875,6.2994375 Z" id="Shape"></path>
                    <path d="M45.4352,5.555425 C45.4352,3.7768625 46.3495125,2.65015 47.771625,2.65015 C48.489721,2.61706267 49.1622844,3.00184108 49.4977,3.63765 L49.5807125,3.63765 L49.5807125,0.54625 L50.69155,0.54625 L50.69155,8.372175 L49.6271,8.372175 L49.6271,7.4828875 L49.5392125,7.4828875 C49.1784427,8.11342123 48.4975932,8.49169559 47.7716375,8.4649375 C46.33975,8.465 45.4352,7.3382625 45.4352,5.555425 Z M46.5827,5.555425 C46.5827,6.749275 47.14545,7.4676625 48.0866125,7.4676625 C49.0228625,7.4676625 49.6015,6.7389125 49.6015,5.5603125 C49.6015,4.3872125 49.0167875,3.648075 48.0866125,3.648075 C47.1515125,3.648075 46.5826625,4.3713375 46.5826625,5.555425 L46.5827,5.555425 Z" id="Shape"></path>
                    <path d="M55.2875,5.555425 C55.1909839,4.54653131 55.6747546,3.57013992 56.5359199,3.03574671 C57.3970852,2.5013535 58.4867523,2.5013535 59.3479176,3.03574671 C60.2090829,3.57013992 60.6928536,4.54653131 60.5963375,5.555425 C60.6946899,6.56540283 60.2113608,7.54368798 59.3494319,8.07923163 C58.487503,8.61477527 57.3963345,8.61477527 56.5344056,8.07923163 C55.6724767,7.54368798 55.1891476,6.56540283 55.2875,5.555425 L55.2875,5.555425 Z M59.45375,5.555425 C59.45375,4.3353375 58.90565,3.6218375 57.94375,3.6218375 C56.978175,3.6218375 56.435,4.3353375 56.435,5.5554375 C56.435,6.7853 56.9782125,7.4933 57.94375,7.4933 C58.9056625,7.4932875 59.45375,6.7804 59.45375,5.555425 Z" id="Shape"></path>
                    <path d="M62.0868125,2.743525 L63.15615,2.743525 L63.15615,3.6376875 L63.2391625,3.6376875 C63.5278311,2.97934742 64.2023661,2.57663434 64.91885,2.634875 C65.473621,2.59316471 66.0172573,2.80598738 66.3962635,3.21325259 C66.7752696,3.6205178 66.9485163,4.1780297 66.8670875,4.728375 L66.8670875,8.372125 L65.75625,8.372125 L65.75625,5.007325 C65.75625,4.1027875 65.3631875,3.65295 64.54165,3.65295 C64.1653573,3.6354239 63.8001752,3.78310321 63.5418433,4.05727098 C63.2835113,4.33143875 63.1577938,4.70475126 63.19765,5.0793375 L63.19765,8.3721875 L62.0868125,8.3721875 L62.0868125,2.743525 Z" id="Shape"></path>
                    <path d="M73.14395,1.3421625 L73.14395,2.7691625 L74.3634375,2.7691625 L74.3634375,3.7048375 L73.14395,3.7048375 L73.14395,6.599125 C73.14395,7.188725 73.386875,7.4469 73.93985,7.4469 C74.0814195,7.44644692 74.2228468,7.43788708 74.3634375,7.4212625 L74.3634375,8.34655 C74.1639494,8.3822384 73.961832,8.40122505 73.7591875,8.4033125 C72.5238375,8.4033125 72.0318875,7.9687375 72.0318875,6.8835375 L72.0318875,3.7047875 L71.1383375,3.7047875 L71.1383375,2.7691125 L72.0318875,2.7691125 L72.0318875,1.3421625 L73.14395,1.3421625 Z" id="Shape"></path>
                    <path d="M75.8807625,0.54625 L76.9818375,0.54625 L76.9818375,3.6480625 L77.069725,3.6480625 C77.3722597,2.9839607 78.0586002,2.58073443 78.785975,2.6397625 C79.3375958,2.6097466 79.8738729,2.82725464 80.2487366,3.23304232 C80.6236003,3.63882999 80.7980062,4.19063205 80.72445,4.73815 L80.72445,8.3721875 L79.6125,8.3721875 L79.6125,5.0121875 C79.6125,4.1131375 79.19375,3.6578125 78.4088875,3.6578125 C78.0224237,3.62611709 77.6416739,3.7666137 77.3684279,4.04174188 C77.095182,4.31687006 76.9573024,4.69857539 76.99165,5.0848125 L76.99165,8.3721625 L75.8808125,8.3721625 L75.8807625,0.54625 Z" id="Shape"></path>
                    <path d="M87.2015625,6.8524125 C86.8900713,7.91413685 85.8626236,8.6001288 84.7626,8.480825 C84.0120549,8.50063775 83.2907393,8.18953837 82.7900353,7.63006895 C82.2893313,7.07059953 82.059858,6.31931992 82.1625,5.5755625 C82.0625842,4.82973809 82.2911978,4.07725467 82.7891135,3.51305869 C83.2870293,2.94886272 84.0052525,2.62847094 84.7577125,2.6348875 C86.323875,2.6348875 87.2687,3.7048875 87.2687,5.4723875 L87.2687,5.86 L83.2940875,5.86 L83.2940875,5.92225 C83.258915,6.33992518 83.4015634,6.75305969 83.686951,7.06005087 C83.9723386,7.36704206 84.3739848,7.5394049 84.7931125,7.53475 C85.3365773,7.59999335 85.8656031,7.3304163 86.132225,6.852375 L87.2015625,6.8524125 Z M83.2940625,5.03845 L86.137075,5.03845 C86.1653911,4.65645055 86.0310731,4.28025634 85.7672212,4.00257387 C85.5033692,3.72489139 85.1345219,3.57154528 84.751575,3.580325 C84.36344,3.57544864 83.989785,3.72752654 83.7153704,4.0020611 C83.4409559,4.27659566 83.2890414,4.65031717 83.2940875,5.03845 L83.2940625,5.03845 Z" id="Shape"></path>
                </g>
            </g>
        </g>
    </g>
</svg>